<svg width="33" height="35" viewBox="0 0 33 35" fill="none" xmlns="http://www.w3.org/2000/svg">
    <path d="M12.2693 17.3974L16.5001 0L20.7308 17.3974H12.2693Z" fill="#F4B940"/>
    <path d="M20.7307 17.1026L16.4999 34.5L12.2692 17.1026L20.7307 17.1026Z" fill="#F4B940"/>
    <path d="M16.359 12.8271L33 17.2502L16.359 21.6733L16.359 12.8271Z" fill="#F4B940"/>
    <path d="M16.641 21.6729L5.88423e-07 17.2498L16.641 12.8267L16.641 21.6729Z" fill="#F4B940"/>
    <path d="M19.392 14.018L28.1673 29.4474L13.4087 20.2732L19.392 14.018Z" fill="#F4B940"/>
    <path d="M13.608 20.482L4.83267 5.05259L19.5913 14.2268L13.608 20.482Z" fill="#F4B940"/>
    <path d="M19.5914 20.2734L4.83286 29.4476L13.6082 14.0182L19.5914 20.2734Z" fill="#F4B940"/>
    <path d="M13.4086 14.2266L28.1671 5.05239L19.3918 20.4818L13.4086 14.2266Z" fill="#F4B940"/>
    <circle cx="16.5" cy="17.5" r="3.5" fill="white"/>
    <circle cx="16.5" cy="17.5" r="2.5" fill="#6335ED"/>
</svg>
